<svg width="32" height="32" viewBox="0 0 32 32" fill="none" xmlns="http://www.w3.org/2000/svg">
<path fill-rule="evenodd" clip-rule="evenodd" d="M6.27725 20.5869C7.83827 21.6833 9.69897 22.2727 11.6066 22.2749C12.1944 23.8756 13.2095 25.2847 14.5417 26.3491C15.8739 27.4136 17.4723 28.0927 19.1632 28.3128C20.8542 28.5329 22.5731 28.2855 24.1334 27.5975C25.6937 26.9095 27.0357 25.8072 28.0137 24.4103C28.9916 23.0134 29.5682 21.3753 29.6808 19.6738C29.7934 17.9723 29.4377 16.2724 28.6523 14.7588C27.8669 13.2452 26.6819 11.9757 25.2259 11.0882C23.7698 10.2006 22.0985 9.72886 20.3933 9.72422C19.8882 8.34932 19.0665 7.11261 17.9949 6.1141C16.9232 5.1156 15.6316 4.38333 14.2245 3.97654C12.8174 3.56975 11.3343 3.49984 9.89512 3.77249C8.45598 4.04513 7.10121 4.65266 5.94039 5.54595C4.77957 6.43924 3.84528 7.59319 3.21311 8.91449C2.58094 10.2358 2.26862 11.6873 2.30141 13.1517C2.33421 14.6161 2.7112 16.0522 3.4019 17.3438C4.09259 18.6355 5.0776 19.7465 6.27725 20.5869ZM7.80659 18.4002C8.76434 19.0731 9.88308 19.4807 11.0493 19.5816C10.9289 17.4897 11.5191 15.4185 12.7239 13.7042C13.9231 11.9861 15.6677 10.7235 17.6746 10.1216C17.2421 9.19523 16.6023 8.38079 15.8047 7.74121C15.0072 7.10162 14.0732 6.65403 13.0751 6.43304C12.0769 6.21205 11.0413 6.22358 10.0483 6.46674C9.05533 6.70989 8.13156 7.17817 7.34845 7.83535C6.56534 8.49253 5.94386 9.32101 5.53206 10.2567C5.12026 11.1925 4.92918 12.2103 4.9736 13.2317C5.01801 14.2531 5.29673 15.2505 5.7882 16.147C6.27966 17.0434 6.97071 17.8148 7.80792 18.4016L7.80659 18.4002ZM24.1933 13.5962C23.2353 12.9238 22.1166 12.5167 20.9506 12.4162C21.0709 14.5081 20.4808 16.5793 19.2759 18.2936C18.0767 20.0117 16.3322 21.2742 14.3253 21.8762C14.7578 22.8025 15.3976 23.617 16.1951 24.2566C16.9927 24.8961 17.9266 25.3437 18.9248 25.5647C19.9229 25.7857 20.9585 25.7742 21.9515 25.531C22.9445 25.2879 23.8683 24.8196 24.6514 24.1624C25.4345 23.5052 26.056 22.6768 26.4678 21.741C26.8796 20.8053 27.0707 19.7874 27.0262 18.7661C26.9818 17.7447 26.7031 16.7472 26.2116 15.8508C25.7202 14.9543 25.0291 14.1829 24.1919 13.5962H24.1933Z" fill="#706E6E"/>
</svg>
